<svg width="32" height="32" viewBox="0 0 32 32" fill="none" xmlns="http://www.w3.org/2000/svg">
<g filter="url(#filter0_b_200_824)">
<circle cx="16" cy="16" r="16" fill="#FDF7F2"/>
</g>
<path d="M9.68332 23.149C9.56771 23.1488 9.4534 23.1246 9.34766 23.0778C9.24193 23.0311 9.14708 22.9628 9.06916 22.8774C8.98982 22.7927 8.92929 22.6922 8.89152 22.5825C8.85374 22.4728 8.83959 22.3563 8.84999 22.2407L9.05416 19.9957L18.4858 10.5674L21.4333 13.514L12.0042 22.9415L9.75916 23.1457C9.73395 23.148 9.70864 23.1491 9.68332 23.149ZM22.0217 12.9249L19.075 9.97821L20.8425 8.21071C20.9199 8.13323 21.0118 8.07177 21.113 8.02983C21.2141 7.98789 21.3226 7.96631 21.4321 7.96631C21.5416 7.96631 21.65 7.98789 21.7512 8.02983C21.8524 8.07177 21.9443 8.13323 22.0217 8.21071L23.7892 9.97821C23.8666 10.0556 23.9281 10.1475 23.97 10.2487C24.012 10.3498 24.0336 10.4583 24.0336 10.5678C24.0336 10.6773 24.012 10.7857 23.97 10.8869C23.9281 10.9881 23.8666 11.08 23.7892 11.1574L22.0225 12.924L22.0217 12.9249Z" fill="#111111" fill-opacity="0.6"/>
<defs>
<filter id="filter0_b_200_824" x="-4" y="-4" width="40" height="40" filterUnits="userSpaceOnUse" color-interpolation-filters="sRGB">
<feFlood flood-opacity="0" result="BackgroundImageFix"/>
<feGaussianBlur in="BackgroundImageFix" stdDeviation="2"/>
<feComposite in2="SourceAlpha" operator="in" result="effect1_backgroundBlur_200_824"/>
<feBlend mode="normal" in="SourceGraphic" in2="effect1_backgroundBlur_200_824" result="shape"/>
</filter>
</defs>
</svg>
