
<svg version="1.0" xmlns="http://www.w3.org/2000/svg"
 width="900.000000pt" height="318.000000pt" viewBox="0 0 900.000000 318.000000"
 preserveAspectRatio="xMidYMid meet">

<g transform="translate(0.000000,318.000000) scale(0.100000,-0.100000)"
fill="#FF6101" stroke="none">
<path d="M4242 2705 c-17 -14 -51 -58 -76 -99 -56 -90 -58 -91 -248 -81 l-139
7 -33 52 c-37 57 -98 115 -124 117 -35 3 -58 -3 -75 -19 -29 -26 -91 -138
-143 -258 -26 -60 -49 -111 -50 -113 -2 -2 -38 6 -82 18 -92 25 -164 27 -182
6 -20 -24 -2 -35 55 -35 46 0 185 -34 185 -45 0 -2 -4 -15 -9 -28 -9 -23 -15
-25 -103 -29 -108 -7 -128 -13 -128 -40 0 -18 5 -19 78 -13 42 3 88 8 101 11
20 4 23 2 18 -18 -3 -13 -26 -103 -51 -201 -88 -343 -78 -579 31 -731 l35 -48
-34 -35 c-20 -21 -99 -68 -201 -120 -185 -94 -200 -108 -173 -161 30 -59 52
-55 241 41 93 48 173 87 178 87 4 0 7 -115 7 -255 0 -234 2 -257 18 -273 27
-27 222 -32 1344 -32 1037 0 1007 -2 1022 52 3 13 6 132 6 265 l0 243 132 -86
c214 -140 221 -141 255 -69 14 29 14 37 3 50 -7 9 -100 75 -207 146 l-193 130
24 32 c76 100 105 217 106 422 0 351 -100 627 -283 775 -109 89 -250 149 -392
170 -152 21 -434 7 -578 -30 l-69 -17 -25 41 c-116 189 -172 229 -241 171z
m112 -77 c25 -28 59 -77 75 -109 46 -86 46 -86 155 -61 51 12 124 25 163 28
l70 7 7 -43 c8 -54 57 -106 109 -115 70 -13 157 57 157 126 0 25 4 29 30 29
16 0 52 -5 80 -11 45 -10 50 -13 44 -31 -11 -37 -6 -96 12 -123 24 -36 65 -55
120 -55 42 0 51 4 84 40 l37 40 64 -67 c97 -103 154 -225 195 -415 14 -64 18
-126 18 -273 -1 -213 -12 -268 -75 -366 l-33 -52 -1159 5 -1159 5 -25 29 c-71
84 -98 201 -90 392 8 214 84 493 217 793 72 162 125 249 154 249 39 0 136
-128 136 -180 0 -35 27 -70 54 -70 28 0 46 18 46 47 0 18 6 23 25 23 15 0 25
-6 25 -14 0 -8 8 -24 18 -36 26 -32 66 -21 80 20 14 38 34 38 49 0 10 -25 17
-30 46 -30 37 0 50 11 62 50 20 68 129 220 156 220 4 0 28 -23 53 -52z m1304
-1517 c12 -11 22 -22 22 -25 0 -8 -1191 -8 -1843 1 -511 6 -527 7 -511 25 16
17 64 18 1163 18 1106 -1 1147 -1 1169 -19z m-2364 -70 c16 -6 -4 -20 -95 -68
-240 -127 -263 -137 -257 -107 2 13 309 184 328 183 3 0 14 -4 24 -8z m1538
-11 l828 0 0 -273 c0 -199 -3 -276 -12 -285 -9 -9 -239 -12 -982 -11 -534 1
-1043 4 -1131 8 l-160 6 -3 284 -2 284 316 -6 c175 -4 690 -7 1146 -7z m1074
-87 c79 -54 144 -104 144 -112 0 -19 -14 -12 -180 95 -137 88 -165 114 -124
114 9 0 80 -44 160 -97z"/>
<path d="M4660 2353 c-65 -5 -177 -33 -189 -47 -7 -9 -7 -18 2 -30 11 -15 16
-15 65 -1 29 9 87 19 130 23 64 6 77 10 80 26 4 19 -14 37 -33 34 -5 -1 -30
-3 -55 -5z"/>
<path d="M4216 2275 c-34 -35 -28 -83 15 -105 39 -21 89 12 89 59 0 52 -68 82
-104 46z"/>
<path d="M3580 2260 c-39 -39 -11 -110 44 -110 27 0 66 42 66 70 0 23 -42 60
-68 60 -12 0 -31 -9 -42 -20z"/>
<path d="M3919 2256 c-13 -28 -46 -35 -66 -15 -14 14 -43 4 -43 -15 0 -7 24
-39 54 -70 71 -75 91 -75 162 2 58 61 62 73 39 92 -13 10 -19 10 -33 -4 -25
-22 -45 -20 -57 6 -14 33 -42 35 -56 4z m45 -75 c3 -5 0 -13 -7 -19 -15 -13
-42 1 -33 17 9 13 33 15 40 2z"/>
<path d="M4483 2204 c-18 -8 -16 -41 3 -48 9 -3 36 -6 62 -6 25 0 72 -7 104
-16 45 -13 62 -14 71 -5 18 18 -4 44 -52 58 -48 14 -170 25 -188 17z"/>
<path d="M5490 848 c-25 -5 -83 -12 -130 -16 -76 -6 -85 -9 -85 -27 0 -17 8
-20 58 -23 64 -3 234 23 253 39 20 16 5 39 -25 38 -14 -1 -46 -5 -71 -11z"/>
<path d="M3588 772 c-65 -31 -98 -53 -98 -63 0 -30 25 -28 106 7 97 42 129 66
121 88 -9 23 -20 20 -129 -32z"/>
<path d="M5264 675 c-4 -9 -3 -20 2 -25 11 -10 219 -50 262 -50 37 0 48 13 26
31 -16 13 -132 40 -233 54 -42 6 -52 4 -57 -10z"/>
</g>
</svg>
