
<svg version="1.0" xmlns="http://www.w3.org/2000/svg"
 width="900.000000pt" height="512.000000pt" viewBox="0 0 900.000000 512.000000"
 preserveAspectRatio="xMidYMid meet">

<g transform="translate(0.000000,512.000000) scale(0.100000,-0.100000)"
fill="#FF6101" stroke="none">
<path d="M4525 3905 c-687 -76 -1295 -441 -1606 -966 -43 -72 -54 -76 -89 -34
-19 23 -65 45 -94 45 -13 0 -37 -11 -53 -24 -82 -69 -266 -531 -336 -845 -14
-62 -27 -114 -29 -116 -2 -1 -42 -20 -90 -43 -47 -22 -118 -61 -158 -86 -63
-41 -71 -50 -68 -74 4 -40 29 -38 95 6 52 35 194 112 208 112 3 0 5 -30 5 -67
l0 -68 -58 -37 c-79 -51 -154 -127 -150 -153 6 -40 47 -31 102 23 28 27 65 58
82 70 l31 21 16 -57 c24 -83 73 -130 177 -170 183 -72 330 -78 2130 -88 1008
-5 1068 -7 1117 -24 86 -32 245 -42 548 -37 244 4 291 7 363 25 190 50 268
128 318 321 24 94 15 384 -15 536 -85 421 -341 880 -633 1135 -312 273 -694
477 -1045 559 -221 52 -504 65 -768 36z m507 -64 c90 -14 218 -152 308 -331
58 -116 106 -167 167 -176 121 -18 193 34 193 138 0 51 -26 112 -76 179 l-36
49 87 -40 c324 -149 648 -399 835 -645 250 -329 404 -736 417 -1106 11 -281
-44 -431 -178 -488 -28 -12 -55 -21 -61 -19 -5 2 -20 35 -32 73 -27 82 -70
171 -87 177 -7 2 -44 0 -83 -5 -39 -5 -210 -7 -381 -3 -344 6 -366 3 -421 -52
-36 -36 -49 -79 -42 -138 l4 -36 -835 7 c-460 4 -899 9 -976 11 -77 1 -306 4
-510 5 -203 1 -420 6 -482 10 -201 15 -355 61 -409 121 -68 75 -70 277 -7 538
70 292 257 750 313 768 20 7 146 -130 179 -196 35 -70 43 -77 71 -62 30 16 25
46 -21 122 l-40 69 32 57 c227 403 675 747 1146 880 l72 20 57 -34 c91 -55
187 -139 313 -272 64 -68 129 -131 146 -139 42 -22 111 -20 143 4 43 32 65 78
65 139 0 86 -47 170 -155 277 -48 48 -93 87 -100 88 -7 1 -2 5 12 9 31 10 307
11 372 1z m1062 -2296 c7 -29 15 -79 21 -139 l4 -49 -82 7 c-45 3 -85 6 -88 6
-3 0 -9 37 -12 83 -3 45 -8 90 -12 100 -7 17 -1 18 78 16 79 -2 86 -3 91 -24z
m371 -28 c8 -28 18 -76 22 -104 l6 -53 -87 0 c-62 0 -86 4 -87 13 -1 37 -13
107 -24 144 l-13 42 32 3 c17 2 54 5 83 6 l52 2 16 -53z"/>
<path d="M3955 2912 c-41 -26 -117 -112 -177 -200 -55 -81 -60 -115 -18 -120
21 -2 33 9 77 75 67 101 140 183 163 183 21 0 81 -111 130 -242 34 -90 56
-112 85 -88 21 17 20 24 -26 140 -48 124 -92 210 -123 239 -32 30 -75 35 -111
13z"/>
<path d="M3122 2732 c-45 -29 -66 -210 -28 -238 49 -35 88 -7 91 67 1 30 8 73
15 96 12 39 11 45 -5 63 -19 21 -50 26 -73 12z"/>
<path d="M3578 2713 c-9 -10 -21 -52 -28 -93 -6 -41 -13 -85 -15 -98 -4 -24
25 -62 48 -62 32 0 48 27 62 110 19 107 19 125 -1 144 -20 21 -47 20 -66 -1z"/>
<path d="M3357 2702 c-29 -32 -47 -90 -47 -155 0 -69 10 -87 50 -87 39 0 50
18 50 80 1 30 7 66 15 80 18 31 19 72 3 88 -18 18 -52 15 -71 -6z"/>
<path d="M2824 2144 c-28 -26 -118 -74 -140 -74 -20 0 -36 -28 -29 -51 6 -18
13 -21 45 -16 76 10 200 89 200 127 0 19 -19 40 -36 40 -6 0 -24 -12 -40 -26z"/>
<path d="M3674 2136 c-13 -33 2 -51 60 -74 32 -13 89 -26 127 -29 60 -5 69 -4
75 12 12 30 -10 50 -65 57 -28 5 -77 17 -108 28 -68 24 -82 25 -89 6z"/>
<path d="M4240 1950 c-27 -6 -38 -34 -21 -54 6 -7 38 -16 70 -19 33 -4 99 -20
147 -37 104 -36 120 -37 130 -8 9 31 -21 52 -117 83 -95 30 -175 43 -209 35z"/>
<path d="M2724 1896 c-43 -43 -46 -90 -8 -135 50 -60 140 -46 171 26 18 44 11
77 -27 114 -41 42 -91 40 -136 -5z"/>
<path d="M3801 1917 c-80 -47 -58 -175 33 -193 100 -18 162 112 86 181 -25 22
-89 29 -119 12z"/>
<path d="M3260 1811 c-5 -11 -10 -28 -10 -38 0 -10 -13 -46 -30 -81 -29 -63
-31 -86 -4 -96 25 -9 40 4 64 55 13 27 26 49 29 49 3 0 12 -15 19 -32 22 -54
28 -63 49 -66 11 -2 26 4 33 13 11 13 7 29 -25 103 -20 48 -42 93 -47 100 -16
19 -66 15 -78 -7z"/>
<path d="M4232 1754 c-14 -29 -5 -42 51 -71 29 -14 78 -43 110 -65 59 -40 89
-43 101 -11 9 23 -18 49 -113 105 -99 58 -135 68 -149 42z"/>
</g>
</svg>
