<svg aria-hidden="true" style="position: absolute; width: 0; height: 0; overflow: hidden;" version="1.1" xmlns="http://www.w3.org/2000/svg" xmlns:xlink="http://www.w3.org/1999/xlink">
<defs>
<symbol id="inputButtonSearch" viewBox="0 0 32 32">
<path d="M21.833 19.333h-1.317l-0.467-0.45c1.633-1.9 2.617-4.367 2.617-7.050 0-5.983-4.85-10.833-10.833-10.833s-10.833 4.85-10.833 10.833c0 5.983 4.85 10.833 10.833 10.833 2.683 0 5.15-0.983 7.050-2.617l0.45 0.467v1.317l8.333 8.317 2.483-2.483-8.317-8.333zM11.833 19.333c-4.15 0-7.5-3.35-7.5-7.5s3.35-7.5 7.5-7.5c4.15 0 7.5 3.35 7.5 7.5s-3.35 7.5-7.5 7.5z"></path>
</symbol>
<symbol id="btnLike" viewBox="0 0 35 32">
<path d="M9.333 1.333c-4.418 0-8 3.645-8 8.142 0 3.63 1.4 12.246 15.181 20.955 0.247 0.154 0.53 0.236 0.819 0.236s0.572-0.082 0.819-0.236c13.781-8.709 15.181-17.325 15.181-20.955 0-4.497-3.582-8.142-8-8.142s-8 4.935-8 4.935c0 0-3.582-4.935-8-4.935z"></path>
<path  stroke-linejoin="round" stroke-linecap="square" stroke-miterlimit="4" stroke-width="2.6667" d="M9.333 1.333c-4.418 0-8 3.645-8 8.142 0 3.63 1.4 12.246 15.181 20.955 0.247 0.154 0.53 0.236 0.819 0.236s0.572-0.082 0.819-0.236c13.781-8.709 15.181-17.325 15.181-20.955 0-4.497-3.582-8.142-8-8.142s-8 4.935-8 4.935c0 0-3.582-4.935-8-4.935z"></path>
</symbol>
<symbol id="btnRemove" viewBox="0 0 32 32">
<path  d="M13.778 4.889h4.444c0-0.589-0.234-1.155-0.651-1.571s-0.982-0.651-1.571-0.651c-0.589 0-1.155 0.234-1.571 0.651s-0.651 0.982-0.651 1.571v0zM11.556 4.889c0-1.179 0.468-2.309 1.302-3.143s1.964-1.302 3.143-1.302c1.179 0 2.309 0.468 3.143 1.302s1.302 1.964 1.302 3.143h8.889c0.295 0 0.577 0.117 0.786 0.325s0.326 0.491 0.326 0.786-0.117 0.577-0.326 0.786c-0.208 0.208-0.491 0.325-0.786 0.325h-1.253l-2.678 19.64c-0.181 1.331-0.839 2.551-1.851 3.434s-2.31 1.37-3.653 1.37h-7.796c-1.343 0-2.641-0.487-3.653-1.37s-1.67-2.103-1.851-3.434l-2.678-19.64h-1.253c-0.295 0-0.577-0.117-0.786-0.325s-0.325-0.491-0.325-0.786c0-0.295 0.117-0.577 0.325-0.786s0.491-0.325 0.786-0.325h8.889zM13.778 12.667c0-0.295-0.117-0.577-0.325-0.786s-0.491-0.325-0.786-0.325c-0.295 0-0.577 0.117-0.786 0.325s-0.325 0.491-0.325 0.786v11.111c0 0.295 0.117 0.577 0.325 0.786s0.491 0.326 0.786 0.326 0.577-0.117 0.786-0.326c0.208-0.208 0.325-0.491 0.325-0.786v-11.111zM19.333 11.556c-0.295 0-0.577 0.117-0.786 0.325s-0.326 0.491-0.326 0.786v11.111c0 0.295 0.117 0.577 0.326 0.786s0.491 0.326 0.786 0.326 0.577-0.117 0.786-0.326c0.209-0.208 0.326-0.491 0.326-0.786v-11.111c0-0.295-0.117-0.577-0.326-0.786s-0.491-0.325-0.786-0.325z"></path>
</symbol>
<symbol id="addTo" viewBox="0 0 32 32">
<path  d="M16 30.222v0zM16 16v0zM16 16v0zM16 16v0z"></path>
<path  stroke-linejoin="round" stroke-linecap="square" stroke-miterlimit="4" stroke-width="2.6667" d="M16 30.222v-14.222M16 16v-14.222M16 16h14.222M16 16h-14.222"></path>
</symbol>
<symbol id="cross" viewBox="0 0 32 32">
<path  d="M26.731 7.531c0.625-0.625 0.625-1.638 0-2.263s-1.638-0.625-2.263 0l-8.469 8.469-8.469-8.469c-0.625-0.625-1.638-0.625-2.263 0s-0.625 1.638 0 2.263l8.469 8.469-8.469 8.469c-0.625 0.625-0.625 1.638 0 2.263s1.638 0.625 2.263 0l8.469-8.469 8.469 8.469c0.625 0.625 1.638 0.625 2.263 0s0.625-1.638 0-2.263l-8.469-8.469 8.469-8.469z"></path>
</symbol>
</defs>
</svg>
